# Blender v2.79 (sub 0) OBJ File: ''
# www.blender.org
mtllib Arch.mtl
o Cube_Cube.001
v -0.500000 0.761924 2.116069
v -0.500000 2.119038 2.116069
v -0.500000 0.761924 -2.116069
v -0.500000 2.119038 -2.116069
v 0.500000 0.761924 2.116069
v 0.500000 2.119038 2.116069
v 0.500000 0.761924 -2.116069
v 0.500000 2.119038 -2.116069
v -0.500000 0.761924 4.240538
v -0.500000 2.119038 4.240538
v -0.500000 2.119038 -4.240538
v -0.500000 0.761924 -4.240538
v 0.500000 0.761924 -4.240538
v 0.500000 2.119038 -4.240538
v 0.500000 2.119038 4.240538
v 0.500000 0.761924 4.240538
v 0.500000 -2.880962 -4.241581
v -0.500000 -2.880962 -4.241581
v -0.500000 -2.880962 4.241581
v 0.500000 -2.880962 4.241581
v 0.500000 -2.880962 -8.500000
v -0.500000 -2.880962 -8.500000
v -0.500000 -2.880962 8.500000
v 0.500000 -2.880962 8.500000
vn -1.0000 0.0000 0.0000
vn 1.0000 0.0000 0.0000
vn 0.0000 1.0000 -0.0000
vn 0.0000 -1.0000 0.0000
vn 0.0000 0.0000 -1.0000
vn 0.0000 0.0000 1.0000
vn 0.0000 0.7600 -0.6500
vn 0.0000 -0.5040 -0.8637
vn 0.0000 -0.5040 0.8637
vn 0.0000 0.7600 0.6500
usemtl None
s off
f 1//1 2//1 4//1 3//1
f 3//1 4//1 11//1 12//1
f 7//2 8//2 6//2 5//2
f 4//3 8//3 14//3 11//3
f 3//4 7//4 5//4 1//4
f 8//3 4//3 2//3 6//3
f 12//5 11//5 14//5 13//5
f 16//6 15//6 10//6 9//6
f 2//1 1//1 9//1 10//1
f 12//7 13//7 21//7 22//7
f 8//2 7//2 13//2 14//2
f 5//2 16//2 24//2 20//2
f 6//3 2//3 10//3 15//3
f 5//2 6//2 15//2 16//2
f 19//4 20//4 24//4 23//4
f 17//4 18//4 22//4 21//4
f 9//1 1//1 19//1 23//1
f 1//8 5//8 20//8 19//8
f 13//2 7//2 17//2 21//2
f 7//9 3//9 18//9 17//9
f 3//1 12//1 22//1 18//1
f 16//10 9//10 23//10 24//10
